<?xml version="1.0" encoding="iso-8859-1"?>
<!-- Uploaded to: SVG Repo, www.svgrepo.com, Generator: SVG Repo Mixer Tools -->
<svg height="800px" width="800px" version="1.1" id="Layer_1" xmlns="http://www.w3.org/2000/svg" xmlns:xlink="http://www.w3.org/1999/xlink" 
	 viewBox="0 0 503.641 503.641" xml:space="preserve">
<path style="fill:#FFE100;" d="M327.361,0.034h-8.393l8.393,92.328c0,9.233,7.554,16.787,16.787,16.787h75.541V478.46
	c0,9.233-6.715,16.787-14.269,16.787h28.538c5.875,0,10.911-5.036,10.911-10.911V109.149L327.361,0.034z"/>
<path style="fill:#FECC00;" d="M419.689,109.149h-83.934c-9.233,0-16.787-7.554-16.787-16.787V8.427L419.689,109.149z"/>
<path style="fill:#FFE100;" d="M394.509,109.149h-61.272c-7.554,0-14.269-7.554-14.269-16.787V8.427H106.614
	c-7.554,0-14.269,7.554-14.269,16.787V478.46c0,9.233,6.715,16.787,14.269,16.787H380.24c7.554,0,14.269-7.554,14.269-16.787
	V109.149z"/>
<path style="fill:#FFA800;" d="M394.509,109.149V478.46c0,9.233-6.715,16.787-14.269,16.787h22.662
	c9.233,0,16.787-7.554,16.787-16.787V109.149H394.509z"/>
<path style="fill:#FFFFFF;" d="M92.345,478.46V25.214c0-9.233,6.715-16.787,14.269-16.787H83.951
	c-9.233,0-16.787,7.554-16.787,16.787V478.46c0,9.233,7.554,16.787,16.787,16.787h22.662
	C99.06,495.247,92.345,487.693,92.345,478.46"/>
<path d="M402.902,503.641H83.951c-14.269,0-25.18-10.911-25.18-25.18V218.264c0-5.036,3.357-8.393,8.393-8.393
	s8.393,3.357,8.393,8.393V478.46c0,5.036,3.357,8.393,8.393,8.393h318.951c5.036,0,8.393-3.357,8.393-8.393V117.542h-75.541
	c-14.269,0-25.18-10.911-25.18-25.18V16.821H83.951c-5.036,0-8.393,4.197-8.393,8.393v125.902c0,5.036-3.357,8.393-8.393,8.393
	s-8.393-3.357-8.393-8.393V25.214c0-14.269,10.911-25.18,25.18-25.18h235.016c5.036,0,8.393,3.357,8.393,8.393v83.934
	c0,5.036,3.357,8.393,8.393,8.393h83.934c5.036,0,8.393,3.357,8.393,8.393V478.46C428.083,492.729,417.171,503.641,402.902,503.641z
	"/>
<path d="M75.558,184.69c0-5.036-3.357-8.393-8.393-8.393s-8.393,3.357-8.393,8.393c0,5.036,3.357,8.393,8.393,8.393
	S75.558,189.726,75.558,184.69"/>
<path style="fill:#E4667F;" d="M251.82,117.542v100.721h100.721C352.542,162.867,307.217,117.542,251.82,117.542"/>
<path style="fill:#00DA6C;" d="M218.247,251.837V151.116c-33.574,0-63.79,16.787-82.256,41.967L218.247,251.837z"/>
<path style="fill:#63D3FD;" d="M136.83,193.083c-12.59,16.787-19.305,36.931-19.305,58.754c0,55.397,45.325,100.721,100.721,100.721
	s100.721-45.325,100.721-100.721H218.247L136.83,193.083"/>
<path d="M419.689,117.542h-83.934c-14.269,0-25.18-10.911-25.18-25.18V8.427c0-3.357,1.679-6.715,5.036-7.554
	c3.357-1.679,6.715-0.839,9.233,1.679l100.721,100.721c2.518,2.518,3.357,5.875,1.679,9.233
	C426.404,115.864,423.047,117.542,419.689,117.542z M327.361,28.572v63.79c0,5.036,3.357,8.393,8.393,8.393h63.79L327.361,28.572z"
	/>
<path d="M352.542,226.657H251.82c-5.036,0-8.393-3.357-8.393-8.393V117.542c0-5.036,3.357-8.393,8.393-8.393
	c60.433,0,109.115,48.682,109.115,109.115C360.935,223.3,357.578,226.657,352.542,226.657z M260.214,209.87h83.934
	c-4.197-44.485-39.449-79.738-83.934-83.934V209.87z"/>
<path d="M218.247,260.231c-1.679,0-3.357-0.839-5.036-1.679l-82.256-58.754c-1.679-1.679-3.357-3.357-3.357-5.036
	s0-4.197,1.679-5.875c20.984-28.538,53.718-46.164,88.97-46.164c5.036,0,8.393,3.357,8.393,8.393v100.721
	c0,3.357-1.679,5.875-4.197,7.554C220.765,260.231,219.925,260.231,218.247,260.231z M148.581,191.404l61.272,43.646v-75.541
	C186.351,162.027,163.689,173.778,148.581,191.404z"/>
<path d="M218.247,360.952c-60.433,0-109.115-48.682-109.115-109.115c0-22.662,6.715-44.485,20.144-62.951l0,0l0,0
	c2.518-3.357,7.554-4.197,11.751-1.679c0.839,0.839,0.839,0.839,1.679,1.679l78.059,55.397h98.203c5.036,0,8.393,3.357,8.393,8.393
	C327.361,312.27,278.679,360.952,218.247,360.952z M138.509,205.673c-8.393,13.43-12.59,29.377-12.59,46.164
	c0,51.2,41.128,92.328,92.328,92.328c47.843,0,87.292-36.931,92.328-83.934h-92.328c-1.679,0-3.357-0.839-5.036-1.679
	L138.509,205.673z"/>
<path d="M369.328,419.706h-83.934c-5.036,0-8.393-3.357-8.393-8.393c0-5.036,3.357-8.393,8.393-8.393h83.934
	c5.036,0,8.393,3.357,8.393,8.393C377.722,416.349,374.365,419.706,369.328,419.706z"/>
<path d="M327.361,453.28h-41.967c-5.036,0-8.393-3.357-8.393-8.393s3.357-8.393,8.393-8.393h41.967c5.036,0,8.393,3.357,8.393,8.393
	S332.397,453.28,327.361,453.28z"/>
<path d="M369.328,453.28h-8.393c-5.036,0-8.393-3.357-8.393-8.393s3.357-8.393,8.393-8.393h8.393c5.036,0,8.393,3.357,8.393,8.393
	S374.365,453.28,369.328,453.28z"/>
</svg>