<?xml version="1.0" standalone="no"?>
<!DOCTYPE svg PUBLIC "-//W3C//DTD SVG 20010904//EN"
 "http://www.w3.org/TR/2001/REC-SVG-20010904/DTD/svg10.dtd">
<svg version="1.0" xmlns="http://www.w3.org/2000/svg"
 width="500.000000pt" height="500.000000pt" viewBox="0 0 500.000000 500.000000"
 preserveAspectRatio="xMidYMid meet">
<metadata>
Created by potrace 1.16, written by Peter Selinger 2001-2019
</metadata>
<g transform="translate(0.000000,500.000000) scale(0.100000,-0.100000)"
fill="#000000" stroke="none">
<path d="M1430 3316 c0 -13 88 -15 733 -19 524 -2 744 -7 775 -15 126 -35 223
-116 261 -217 44 -117 24 -298 -44 -398 -15 -21 -45 -51 -67 -67 -43 -31 -41
-34 25 -44 96 -13 203 -98 249 -196 85 -182 51 -395 -84 -531 -98 -98 -211
-126 -434 -110 -123 9 -146 14 -196 40 l-58 30 0 -60 0 -59 243 0 c354 0 494
27 640 124 189 125 256 357 162 552 -53 108 -187 199 -354 239 l-74 18 56 22
c236 96 320 319 191 506 -52 75 -164 133 -334 171 -92 21 -120 22 -892 25
-706 4 -798 2 -798 -11z"/>
<path d="M1430 3252 c0 -5 19 -12 43 -18 37 -8 43 -13 51 -46 8 -33 14 -38 48
-43 21 -4 62 -4 91 -1 l52 6 -40 -13 c-55 -19 -85 -35 -117 -65 -26 -24 -28
-31 -28 -110 0 -72 2 -83 15 -78 14 5 14 4 0 -16 -12 -19 -15 -61 -15 -255 0
-214 1 -232 17 -226 16 6 16 5 0 -17 -17 -25 -23 -60 -9 -60 28 0 161 34 180
46 23 15 30 57 12 84 -8 13 -11 13 -27 -2 -13 -14 -14 -20 -5 -30 15 -15 16
-38 2 -38 -5 0 -10 9 -10 20 0 11 -7 20 -15 20 -18 0 -18 -5 -5 -30 7 -13 7
-21 0 -25 -5 -3 -10 3 -10 14 0 11 -4 22 -9 25 -12 8 46 66 66 66 20 0 42 -29
43 -56 0 -44 -36 -72 -118 -90 -42 -9 -85 -21 -94 -26 -22 -11 -23 -60 -3
-146 45 -191 170 -299 385 -333 184 -28 443 50 601 183 l68 58 3 -107 c3 -102
4 -107 30 -126 22 -16 47 -21 133 -25 67 -3 105 -1 105 5 0 6 -18 13 -40 17
-26 4 -44 14 -52 29 -19 32 -24 1321 -5 1357 8 17 25 28 55 34 23 6 42 13 42
18 0 4 -85 8 -190 8 -120 0 -190 -4 -190 -10 0 -5 13 -10 28 -10 43 0 64 -21
73 -76 4 -27 8 -274 8 -549 l1 -501 -47 -48 c-121 -123 -282 -182 -425 -156
-111 20 -205 83 -250 167 -56 101 -58 126 -59 637 0 259 3 478 6 487 8 20 47
39 81 39 14 0 22 4 19 10 -7 12 -495 14 -495 2z"/>
</g>
</svg>
